{
  "accessors": [
    {
      "bufferView": 0,
      "byteOffset": 0,
      "componentType": 5126,
      "count": 4,
      "max": [
        1,
        0,
        1
      ],
      "min": [
        -1,
        0,
        -1
      ],
      "normalized": false,
      "type": "VEC3"
    },
    {
      "bufferView": 1,
      "byteOffset": 0,
      "componentType": 5126,
      "count": 4,
      "max": [
        1,
        0,
        -0.00001525902189,
        1
      ],
      "min": [
        1,
        0,
        -0.00001525902189,
        1
      ],
      "normalized": false,
      "type": "VEC4"
    },
    {
      "bufferView": 2,
      "byteOffset": 0,
      "componentType": 5126,
      "count": 4,
      "max": [
        0,
        1,
        -0.00001525902189
      ],
      "min": [
        0,
        1,
        -0.00001525902189
      ],
      "normalized": false,
      "type": "VEC3"
    },
    {
      "bufferView": 3,
      "byteOffset": 0,
      "componentType": 5126,
      "count": 4,
      "max": [
        1,
        1
      ],
      "min": [
        0,
        0
      ],
      "normalized": false,
      "type": "VEC2"
    },
    {
      "bufferView": 4,
      "byteOffset": 0,
      "componentType": 5123,
      "count": 6,
      "max": [
        3
      ],
      "min": [
        0
      ],
      "normalized": false,
      "type": "SCALAR"
    },
    {
      "bufferView": 5,
      "byteOffset": 0,
      "componentType": 5126,
      "count": 4,
      "max": [
        1,
        0,
        1
      ],
      "min": [
        -1,
        0,
        -1
      ],
      "normalized": false,
      "type": "VEC3"
    },
    {
      "bufferView": 6,
      "byteOffset": 0,
      "componentType": 5126,
      "count": 4,
      "max": [
        1,
        0,
        -0.00001525902189,
        1
      ],
      "min": [
        1,
        0,
        -0.00001525902189,
        1
      ],
      "normalized": false,
      "type": "VEC4"
    },
    {
      "bufferView": 7,
      "byteOffset": 0,
      "componentType": 5126,
      "count": 4,
      "max": [
        0,
        1,
        -0.00001525902189
      ],
      "min": [
        0,
        1,
        -0.00001525902189
      ],
      "normalized": false,
      "type": "VEC3"
    },
    {
      "bufferView": 8,
      "byteOffset": 0,
      "componentType": 5126,
      "count": 4,
      "max": [
        1,
        1
      ],
      "min": [
        0,
        0
      ],
      "normalized": false,
      "type": "VEC2"
    },
    {
      "bufferView": 9,
      "byteOffset": 0,
      "componentType": 5123,
      "count": 6,
      "max": [
        3
      ],
      "min": [
        0
      ],
      "normalized": false,
      "type": "SCALAR"
    },
    {
      "bufferView": 10,
      "byteOffset": 0,
      "componentType": 5126,
      "count": 4,
      "max": [
        1,
        0,
        1
      ],
      "min": [
        -1,
        0,
        -1
      ],
      "normalized": false,
      "type": "VEC3"
    },
    {
      "bufferView": 11,
      "byteOffset": 0,
      "componentType": 5126,
      "count": 4,
      "max": [
        1,
        0,
        -0.00001525902189,
        1
      ],
      "min": [
        1,
        0,
        -0.00001525902189,
        1
      ],
      "normalized": false,
      "type": "VEC4"
    },
    {
      "bufferView": 12,
      "byteOffset": 0,
      "componentType": 5126,
      "count": 4,
      "max": [
        0,
        1,
        -0.00001525902189
      ],
      "min": [
        0,
        1,
        -0.00001525902189
      ],
      "normalized": false,
      "type": "VEC3"
    },
    {
      "bufferView": 13,
      "byteOffset": 0,
      "componentType": 5126,
      "count": 4,
      "max": [
        1,
        1
      ],
      "min": [
        0,
        0
      ],
      "normalized": false,
      "type": "VEC2"
    },
    {
      "bufferView": 14,
      "byteOffset": 0,
      "componentType": 5123,
      "count": 6,
      "max": [
        3
      ],
      "min": [
        0
      ],
      "normalized": false,
      "type": "SCALAR"
    },
    {
      "bufferView": 15,
      "byteOffset": 0,
      "componentType": 5126,
      "count": 4,
      "max": [
        1,
        0,
        1
      ],
      "min": [
        -1,
        0,
        -1
      ],
      "normalized": false,
      "type": "VEC3"
    },
    {
      "bufferView": 16,
      "byteOffset": 0,
      "componentType": 5126,
      "count": 4,
      "max": [
        1,
        0,
        -0.00001525902189,
        1
      ],
      "min": [
        1,
        0,
        -0.00001525902189,
        1
      ],
      "normalized": false,
      "type": "VEC4"
    },
    {
      "bufferView": 17,
      "byteOffset": 0,
      "componentType": 5126,
      "count": 4,
      "max": [
        0,
        1,
        -0.00001525902189
      ],
      "min": [
        0,
        1,
        -0.00001525902189
      ],
      "normalized": false,
      "type": "VEC3"
    },
    {
      "bufferView": 18,
      "byteOffset": 0,
      "componentType": 5126,
      "count": 4,
      "max": [
        1,
        1
      ],
      "min": [
        0,
        0
      ],
      "normalized": false,
      "type": "VEC2"
    },
    {
      "bufferView": 19,
      "byteOffset": 0,
      "componentType": 5123,
      "count": 6,
      "max": [
        3
      ],
      "min": [
        0
      ],
      "normalized": false,
      "type": "SCALAR"
    },
    {
      "bufferView": 20,
      "byteOffset": 0,
      "componentType": 5126,
      "count": 4,
      "max": [
        1,
        0,
        1
      ],
      "min": [
        -1,
        0,
        -1
      ],
      "normalized": false,
      "type": "VEC3"
    },
    {
      "bufferView": 21,
      "byteOffset": 0,
      "componentType": 5126,
      "count": 4,
      "max": [
        1,
        0,
        -0.00001525902189,
        1
      ],
      "min": [
        1,
        0,
        -0.00001525902189,
        1
      ],
      "normalized": false,
      "type": "VEC4"
    },
    {
      "bufferView": 22,
      "byteOffset": 0,
      "componentType": 5126,
      "count": 4,
      "max": [
        0,
        1,
        -0.00001525902189
      ],
      "min": [
        0,
        1,
        -0.00001525902189
      ],
      "normalized": false,
      "type": "VEC3"
    },
    {
      "bufferView": 23,
      "byteOffset": 0,
      "componentType": 5126,
      "count": 4,
      "max": [
        1,
        1
      ],
      "min": [
        0,
        0
      ],
      "normalized": false,
      "type": "VEC2"
    },
    {
      "bufferView": 24,
      "byteOffset": 0,
      "componentType": 5123,
      "count": 6,
      "max": [
        3
      ],
      "min": [
        0
      ],
      "normalized": false,
      "type": "SCALAR"
    }
  ],
  "asset": {
    "generator": "Godot Engine v4.3.beta.custom_build@daa81bbb7d1c6d75d1711595604178ee62a5801d",
    "version": "2.0"
  },
  "bufferViews": [
    {
      "buffer": 0,
      "byteLength": 48,
      "byteOffset": 0,
      "byteStride": 12,
      "target": 34962
    },
    {
      "buffer": 0,
      "byteLength": 64,
      "byteOffset": 48,
      "byteStride": 16,
      "target": 34962
    },
    {
      "buffer": 0,
      "byteLength": 48,
      "byteOffset": 112,
      "byteStride": 12,
      "target": 34962
    },
    {
      "buffer": 0,
      "byteLength": 32,
      "byteOffset": 160,
      "byteStride": 8,
      "target": 34962
    },
    {
      "buffer": 0,
      "byteLength": 12,
      "byteOffset": 192,
      "target": 34963
    },
    {
      "buffer": 0,
      "byteLength": 48,
      "byteOffset": 204,
      "byteStride": 12,
      "target": 34962
    },
    {
      "buffer": 0,
      "byteLength": 64,
      "byteOffset": 252,
      "byteStride": 16,
      "target": 34962
    },
    {
      "buffer": 0,
      "byteLength": 48,
      "byteOffset": 316,
      "byteStride": 12,
      "target": 34962
    },
    {
      "buffer": 0,
      "byteLength": 32,
      "byteOffset": 364,
      "byteStride": 8,
      "target": 34962
    },
    {
      "buffer": 0,
      "byteLength": 12,
      "byteOffset": 396,
      "target": 34963
    },
    {
      "buffer": 0,
      "byteLength": 48,
      "byteOffset": 408,
      "byteStride": 12,
      "target": 34962
    },
    {
      "buffer": 0,
      "byteLength": 64,
      "byteOffset": 456,
      "byteStride": 16,
      "target": 34962
    },
    {
      "buffer": 0,
      "byteLength": 48,
      "byteOffset": 520,
      "byteStride": 12,
      "target": 34962
    },
    {
      "buffer": 0,
      "byteLength": 32,
      "byteOffset": 568,
      "byteStride": 8,
      "target": 34962
    },
    {
      "buffer": 0,
      "byteLength": 12,
      "byteOffset": 600,
      "target": 34963
    },
    {
      "buffer": 0,
      "byteLength": 48,
      "byteOffset": 612,
      "byteStride": 12,
      "target": 34962
    },
    {
      "buffer": 0,
      "byteLength": 64,
      "byteOffset": 660,
      "byteStride": 16,
      "target": 34962
    },
    {
      "buffer": 0,
      "byteLength": 48,
      "byteOffset": 724,
      "byteStride": 12,
      "target": 34962
    },
    {
      "buffer": 0,
      "byteLength": 32,
      "byteOffset": 772,
      "byteStride": 8,
      "target": 34962
    },
    {
      "buffer": 0,
      "byteLength": 12,
      "byteOffset": 804,
      "target": 34963
    },
    {
      "buffer": 0,
      "byteLength": 48,
      "byteOffset": 816,
      "byteStride": 12,
      "target": 34962
    },
    {
      "buffer": 0,
      "byteLength": 64,
      "byteOffset": 864,
      "byteStride": 16,
      "target": 34962
    },
    {
      "buffer": 0,
      "byteLength": 48,
      "byteOffset": 928,
      "byteStride": 12,
      "target": 34962
    },
    {
      "buffer": 0,
      "byteLength": 32,
      "byteOffset": 976,
      "byteStride": 8,
      "target": 34962
    },
    {
      "buffer": 0,
      "byteLength": 12,
      "byteOffset": 1008,
      "target": 34963
    }
  ],
  "buffers": [
    {
      "byteLength": 1020,
      "uri": "test_colliders0.bin"
    }
  ],
  "extensions": {
    "OMI_physics_shape": {
      "shapes": [
        {
          "box": {
            "size": [
              2,
              0.0500000007450581,
              2
            ]
          },
          "type": "box"
        }
      ]
    }
  },
  "extensionsUsed": [
    "GODOT_single_root",
    "OMI_physics_body",
    "OMI_physics_shape",
    "OMI_spawn_point"
  ],
  "materials": [
    {
      "extensions": {},
      "pbrMetallicRoughness": {
        "baseColorFactor": [
          0.0612460561096668,
          0,
          0,
          1
        ],
        "metallicFactor": 0,
        "roughnessFactor": 1
      }
    },
    {
      "extensions": {},
      "pbrMetallicRoughness": {
        "baseColorFactor": [
          0.0578054338693619,
          0,
          0,
          1
        ],
        "metallicFactor": 0,
        "roughnessFactor": 1
      }
    },
    {
      "extensions": {},
      "pbrMetallicRoughness": {
        "baseColorFactor": [
          0.0544802695512772,
          0,
          0,
          1
        ],
        "metallicFactor": 0,
        "roughnessFactor": 1
      }
    },
    {
      "extensions": {},
      "pbrMetallicRoughness": {
        "baseColorFactor": [
          0.0561284944415092,
          0,
          0,
          1
        ],
        "metallicFactor": 0,
        "roughnessFactor": 1
      }
    },
    {
      "extensions": {},
      "pbrMetallicRoughness": {
        "baseColorFactor": [
          0.0528606399893761,
          0,
          0,
          1
        ],
        "metallicFactor": 0,
        "roughnessFactor": 1
      }
    }
  ],
  "meshes": [
    {
      "extras": {
        "targetNames": []
      },
      "primitives": [
        {
          "attributes": {
            "NORMAL": 2,
            "POSITION": 0,
            "TANGENT": 1,
            "TEXCOORD_0": 3
          },
          "indices": 4,
          "material": 0,
          "mode": 4
        }
      ]
    },
    {
      "extras": {
        "targetNames": []
      },
      "primitives": [
        {
          "attributes": {
            "NORMAL": 7,
            "POSITION": 5,
            "TANGENT": 6,
            "TEXCOORD_0": 8
          },
          "indices": 9,
          "material": 1,
          "mode": 4
        }
      ]
    },
    {
      "extras": {
        "targetNames": []
      },
      "primitives": [
        {
          "attributes": {
            "NORMAL": 12,
            "POSITION": 10,
            "TANGENT": 11,
            "TEXCOORD_0": 13
          },
          "indices": 14,
          "material": 2,
          "mode": 4
        }
      ]
    },
    {
      "extras": {
        "targetNames": []
      },
      "primitives": [
        {
          "attributes": {
            "NORMAL": 17,
            "POSITION": 15,
            "TANGENT": 16,
            "TEXCOORD_0": 18
          },
          "indices": 19,
          "material": 3,
          "mode": 4
        }
      ]
    },
    {
      "extras": {
        "targetNames": []
      },
      "primitives": [
        {
          "attributes": {
            "NORMAL": 22,
            "POSITION": 20,
            "TANGENT": 21,
            "TEXCOORD_0": 23
          },
          "indices": 24,
          "material": 4,
          "mode": 4
        }
      ]
    }
  ],
  "nodes": [
    {
      "children": [
        1,
        4,
        7,
        10,
        13,
        16
      ],
      "name": "Node3D"
    },
    {
      "children": [
        2
      ],
      "mesh": 0,
      "name": "MeshInstance3D",
      "scale": [
        4,
        4,
        4
      ]
    },
    {
      "children": [
        3
      ],
      "extensions": {
        "OMI_physics_body": {
          "motion": {
            "type": "static"
          }
        }
      },
      "name": "StaticBody3D"
    },
    {
      "extensions": {
        "OMI_physics_body": {
          "collider": {
            "shape": 0
          }
        }
      },
      "name": "CollisionShape3D"
    },
    {
      "children": [
        5
      ],
      "mesh": 1,
      "name": "MeshInstance3D2",
      "rotation": [
        0,
        0,
        0.70710676908493,
        0.70710676908493
      ],
      "scale": [
        2,
        4,
        4
      ],
      "translation": [
        4,
        2,
        0
      ]
    },
    {
      "children": [
        6
      ],
      "extensions": {
        "OMI_physics_body": {
          "motion": {
            "type": "static"
          }
        }
      },
      "name": "StaticBody3D2"
    },
    {
      "extensions": {
        "OMI_physics_body": {
          "collider": {
            "shape": 0
          }
        }
      },
      "name": "CollisionShape3D2"
    },
    {
      "children": [
        8
      ],
      "mesh": 2,
      "name": "MeshInstance3D3",
      "rotation": [
        0.70710676908493,
        0.70710676908493,
        3.09086196637054e-8,
        3.09086196637054e-8
      ],
      "scale": [
        2,
        3.99999976158142,
        3.99999976158142
      ],
      "translation": [
        -4,
        2,
        0
      ]
    },
    {
      "children": [
        9
      ],
      "extensions": {
        "OMI_physics_body": {
          "motion": {
            "type": "static"
          }
        }
      },
      "name": "StaticBody3D3"
    },
    {
      "extensions": {
        "OMI_physics_body": {
          "collider": {
            "shape": 0
          }
        }
      },
      "name": "CollisionShape3D3"
    },
    {
      "children": [
        11
      ],
      "mesh": 3,
      "name": "MeshInstance3D4",
      "rotation": [
        0.5,
        0.5,
        0.5,
        0.5
      ],
      "scale": [
        2,
        4,
        4
      ],
      "translation": [
        0,
        2,
        -4
      ]
    },
    {
      "children": [
        12
      ],
      "extensions": {
        "OMI_physics_body": {
          "motion": {
            "type": "static"
          }
        }
      },
      "name": "StaticBody3D4"
    },
    {
      "extensions": {
        "OMI_physics_body": {
          "collider": {
            "shape": 0
          }
        }
      },
      "name": "CollisionShape3D4"
    },
    {
      "children": [
        14
      ],
      "mesh": 4,
      "name": "MeshInstance3D5",
      "rotation": [
        0.5,
        0.5,
        -0.5,
        -0.5
      ],
      "scale": [
        2,
        4,
        4
      ],
      "translation": [
        0,
        2,
        4
      ]
    },
    {
      "children": [
        15
      ],
      "extensions": {
        "OMI_physics_body": {
          "motion": {
            "type": "static"
          }
        }
      },
      "name": "StaticBody3D5"
    },
    {
      "extensions": {
        "OMI_physics_body": {
          "collider": {
            "shape": 0
          }
        }
      },
      "name": "CollisionShape3D5"
    },
    {
      "extensions": {
        "OMI_spawn_point": {}
      },
      "name": "SpawnPoint",
      "translation": [0, 0.1, 0]
    }
  ],
  "scene": 0,
  "scenes": [
    {
      "nodes": [
        0
      ]
    }
  ]
}